<mxfile host="app.diagrams.net" modified="2023-10-16T02:02:01.591Z" agent="Mozilla/5.0 (Windows NT 10.0; Win64; x64; rv:109.0) Gecko/20100101 Firefox/118.0" etag="kAMh_P6X1OPQYYxLfnDr" version="22.0.4" type="github">
  <diagram id="kgpKYQtTHZ0yAKxKKP6v" name="Page-1">
    <mxGraphModel dx="880" dy="425" grid="1" gridSize="10" guides="1" tooltips="1" connect="1" arrows="1" fold="1" page="1" pageScale="1" pageWidth="850" pageHeight="1100" math="0" shadow="0">
      <root>
        <mxCell id="0" />
        <mxCell id="1" parent="0" />
        <mxCell id="O99zZATMe0WE-HIp-l8h-60" style="edgeStyle=orthogonalEdgeStyle;rounded=0;orthogonalLoop=1;jettySize=auto;html=1;exitX=0.5;exitY=1;exitDx=0;exitDy=0;exitPerimeter=0;entryX=0.5;entryY=0;entryDx=0;entryDy=0;" edge="1" parent="1" source="O99zZATMe0WE-HIp-l8h-51" target="O99zZATMe0WE-HIp-l8h-54">
          <mxGeometry relative="1" as="geometry">
            <Array as="points">
              <mxPoint x="430" y="80" />
            </Array>
          </mxGeometry>
        </mxCell>
        <mxCell id="O99zZATMe0WE-HIp-l8h-51" value="main" style="strokeWidth=2;html=1;shape=mxgraph.flowchart.terminator;whiteSpace=wrap;" vertex="1" parent="1">
          <mxGeometry x="375" y="20" width="100" height="60" as="geometry" />
        </mxCell>
        <mxCell id="O99zZATMe0WE-HIp-l8h-61" style="edgeStyle=orthogonalEdgeStyle;rounded=0;orthogonalLoop=1;jettySize=auto;html=1;exitX=0.5;exitY=1;exitDx=0;exitDy=0;entryX=0.5;entryY=0;entryDx=0;entryDy=0;" edge="1" parent="1" source="O99zZATMe0WE-HIp-l8h-54" target="O99zZATMe0WE-HIp-l8h-55">
          <mxGeometry relative="1" as="geometry" />
        </mxCell>
        <mxCell id="O99zZATMe0WE-HIp-l8h-54" value="inter bilangan" style="shape=internalStorage;whiteSpace=wrap;html=1;dx=15;dy=15;rounded=1;arcSize=8;strokeWidth=2;" vertex="1" parent="1">
          <mxGeometry x="360" y="120" width="140" height="40" as="geometry" />
        </mxCell>
        <mxCell id="O99zZATMe0WE-HIp-l8h-55" value="input bilangan" style="shape=parallelogram;html=1;strokeWidth=2;perimeter=parallelogramPerimeter;whiteSpace=wrap;rounded=1;arcSize=12;size=0.23;" vertex="1" parent="1">
          <mxGeometry x="365" y="210" width="130" height="40" as="geometry" />
        </mxCell>
        <mxCell id="O99zZATMe0WE-HIp-l8h-63" style="edgeStyle=orthogonalEdgeStyle;rounded=0;orthogonalLoop=1;jettySize=auto;html=1;exitX=0;exitY=0.5;exitDx=0;exitDy=0;exitPerimeter=0;entryX=0.5;entryY=0;entryDx=0;entryDy=0;" edge="1" parent="1" source="O99zZATMe0WE-HIp-l8h-56" target="O99zZATMe0WE-HIp-l8h-57">
          <mxGeometry relative="1" as="geometry" />
        </mxCell>
        <mxCell id="O99zZATMe0WE-HIp-l8h-56" value="bilangan mod 2== 0" style="strokeWidth=2;html=1;shape=mxgraph.flowchart.decision;whiteSpace=wrap;" vertex="1" parent="1">
          <mxGeometry x="345" y="310" width="170" height="100" as="geometry" />
        </mxCell>
        <mxCell id="O99zZATMe0WE-HIp-l8h-57" value="otput bilangan &amp;amp; &quot;adalah bilangan genap" style="shape=parallelogram;html=1;strokeWidth=2;perimeter=parallelogramPerimeter;whiteSpace=wrap;rounded=1;arcSize=12;size=0.23;" vertex="1" parent="1">
          <mxGeometry x="210" y="470" width="130" height="60" as="geometry" />
        </mxCell>
        <mxCell id="O99zZATMe0WE-HIp-l8h-58" value="otput bilangan &amp;amp; &quot;adalah bilangan genap&quot;" style="shape=parallelogram;html=1;strokeWidth=2;perimeter=parallelogramPerimeter;whiteSpace=wrap;rounded=1;arcSize=12;size=0.23;" vertex="1" parent="1">
          <mxGeometry x="460" y="460" width="200" height="70" as="geometry" />
        </mxCell>
        <mxCell id="O99zZATMe0WE-HIp-l8h-59" value="end" style="strokeWidth=2;html=1;shape=mxgraph.flowchart.terminator;whiteSpace=wrap;" vertex="1" parent="1">
          <mxGeometry x="375" y="580" width="100" height="60" as="geometry" />
        </mxCell>
        <mxCell id="O99zZATMe0WE-HIp-l8h-62" style="edgeStyle=orthogonalEdgeStyle;rounded=0;orthogonalLoop=1;jettySize=auto;html=1;exitX=0.5;exitY=1;exitDx=0;exitDy=0;entryX=0.5;entryY=0;entryDx=0;entryDy=0;entryPerimeter=0;" edge="1" parent="1" source="O99zZATMe0WE-HIp-l8h-55" target="O99zZATMe0WE-HIp-l8h-56">
          <mxGeometry relative="1" as="geometry" />
        </mxCell>
        <mxCell id="O99zZATMe0WE-HIp-l8h-64" style="edgeStyle=orthogonalEdgeStyle;rounded=0;orthogonalLoop=1;jettySize=auto;html=1;exitX=1;exitY=0.5;exitDx=0;exitDy=0;exitPerimeter=0;entryX=0.607;entryY=-0.017;entryDx=0;entryDy=0;entryPerimeter=0;" edge="1" parent="1" source="O99zZATMe0WE-HIp-l8h-56" target="O99zZATMe0WE-HIp-l8h-58">
          <mxGeometry relative="1" as="geometry" />
        </mxCell>
        <mxCell id="O99zZATMe0WE-HIp-l8h-65" style="edgeStyle=orthogonalEdgeStyle;rounded=0;orthogonalLoop=1;jettySize=auto;html=1;exitX=0.5;exitY=1;exitDx=0;exitDy=0;entryX=0.5;entryY=0;entryDx=0;entryDy=0;entryPerimeter=0;" edge="1" parent="1" source="O99zZATMe0WE-HIp-l8h-57" target="O99zZATMe0WE-HIp-l8h-59">
          <mxGeometry relative="1" as="geometry" />
        </mxCell>
        <mxCell id="O99zZATMe0WE-HIp-l8h-66" style="edgeStyle=orthogonalEdgeStyle;rounded=0;orthogonalLoop=1;jettySize=auto;html=1;exitX=0.5;exitY=1;exitDx=0;exitDy=0;entryX=0.5;entryY=0;entryDx=0;entryDy=0;entryPerimeter=0;" edge="1" parent="1" source="O99zZATMe0WE-HIp-l8h-58" target="O99zZATMe0WE-HIp-l8h-59">
          <mxGeometry relative="1" as="geometry">
            <Array as="points">
              <mxPoint x="580" y="530" />
              <mxPoint x="580" y="555" />
              <mxPoint x="425" y="555" />
            </Array>
          </mxGeometry>
        </mxCell>
      </root>
    </mxGraphModel>
  </diagram>
</mxfile>
